<?xml version="1.0" standalone="no"?>
<!DOCTYPE svg PUBLIC "-//W3C//DTD SVG 1.1//EN" "http://www.w3.org/Graphics/SVG/1.1/DTD/svg11.dtd">
<svg xmlns="http://www.w3.org/2000/svg" id="Layer_2" data-name="Layer 2" viewBox="0 0 443.77 409.79" width="443.77" height="409.79">
  <g id="Layer_1-2" data-name="Layer 1">
    <path fill="#FFFFFF" d="M442.03,167.15c16.38-94.09-86.14-209.5-183.45-151.56-44.2,26.32-61.35,85.33-25.47,125.68,13.96,15.7,39.32,31.7,61.47,25.26,2.77-.8,19.58-5.53,23.21-19.77,2.99-11.75-4.16-25.42-14.01-29.75-10.96-4.82-18.42,4.96-28.46.54-11.52-5.07-17.46-25.06-13.07-40.04,6.52-22.26,34.93-30.46,50.79-31.86,38.39-3.37,65.8,27.67,71.77,34.89,2.88,3.49,32.4,40.46,19.87,85.74-7.7,27.81-27.05,43.56-32.87,48.17-6.11,4.83-21.72,16.88-43.17,19.27-26.01,2.89-45.85-10.69-64.36-20.99-38.36-21.35-76.58-55.07-121.22-61.4-51.08-7.24-102.06,20.84-127.18,65.32-46.63,82.57,15.24,191.27,109.86,193.12,56.06,1.1,114.91-53.98,89.83-112.5-7.47-17.43-23.94-38.31-46.32-41.38-3.51-.48-22.42-3.07-32.94,9.63-9.35,11.28-8.56,30.34.35,39.88,13.94,14.92,41.16-.55,49.92,11.57,7.49,10.36-2.88,34.88-19.18,47.53-36.51,28.32-87.93,2.94-110.61-31.07-27.55-41.32-14.97-102.34,27.76-128.42,46.66-28.48,88.54-2.12,128.21,23.49,40.62,26.22,78.92,57.27,130.5,47.92,52.04-9.43,90-58.89,98.77-109.27Z"/>
  </g>
</svg>