<?xml version="1.0" standalone="no"?>
<!DOCTYPE svg PUBLIC "-//W3C//DTD SVG 1.1//EN" "http://www.w3.org/Graphics/SVG/1.1/DTD/svg11.dtd">
<svg xmlns="http://www.w3.org/2000/svg" id="Layer_2" data-name="Layer 2" viewBox="0 0 632.09 495.96" width="632.0900268554688" height="495.9599914550781">
  <defs>
    <style>
      .cls-1 {
        fill: #fff;
      }
    </style>
  </defs>
  <g id="Layer_1-2" data-name="Layer 1">
    <g>
      <path class="cls-1" d="M442.03,167.15c16.38-94.09-86.14-209.5-183.45-151.56-44.2,26.32-61.35,85.33-25.47,125.68,13.96,15.7,39.32,31.7,61.47,25.26,2.77-.8,19.58-5.53,23.21-19.77,2.99-11.75-4.16-25.42-14.01-29.75-10.96-4.82-18.42,4.96-28.46.54-11.52-5.07-17.46-25.06-13.07-40.04,6.52-22.26,34.93-30.46,50.79-31.86,38.39-3.37,65.8,27.67,71.77,34.89,2.88,3.49,32.4,40.46,19.87,85.74-7.7,27.81-27.05,43.56-32.87,48.17-6.11,4.83-21.72,16.88-43.17,19.27-26.01,2.89-45.85-10.69-64.36-20.99-38.36-21.35-76.58-55.07-121.22-61.4-51.08-7.24-102.06,20.84-127.18,65.32-46.63,82.57,15.24,191.27,109.86,193.12,56.06,1.1,114.91-53.98,89.83-112.5-7.47-17.43-23.94-38.31-46.32-41.38-3.51-.48-22.42-3.07-32.94,9.63-9.35,11.28-8.56,30.34.35,39.88,13.94,14.92,41.16-.55,49.92,11.57,7.49,10.36-2.88,34.88-19.18,47.53-36.51,28.32-87.93,2.94-110.61-31.07-27.55-41.32-14.97-102.34,27.76-128.42,46.66-28.48,88.54-2.12,128.21,23.49,40.62,26.22,78.92,57.27,130.5,47.92,52.04-9.43,90-58.89,98.77-109.27Z"/>
      <g>
        <path class="cls-1" d="M327.54,356.23h18.82c3.85.15,6.2,1.19,7.06,3.11.71,1.41,1.07,3.48,1.07,6.22v24.44c0,2.37-1,4.63-2.99,6.78-5.99,6.44-14.97,9.67-26.95,9.67-10.62,0-19.86-4.17-27.7-12.5-7.84-8.33-11.76-18.39-11.76-30.17s3.99-21.61,11.98-29.5c7.98-7.89,17.39-11.83,28.23-11.83,8.41,0,16.36,2.89,23.85,8.67,1.93,1.48,2.89,3.13,2.89,4.94s-.82,3.91-2.46,6.28c-2.78,3.93-5.31,5.89-7.59,5.89-1.36,0-3.53-1.02-6.52-3.06-2.99-2.04-6.56-3.06-10.69-3.06-5.42,0-10.23,1.98-14.44,5.94-4.21,3.96-6.31,9.15-6.31,15.55s2.14,11.85,6.42,16.33c4.28,4.48,9.12,6.72,14.54,6.72,3.92,0,7.45-.67,10.59-2v-12.11h-8.45c-2.21,0-3.78-.3-4.71-.89-.93-.59-1.53-1.46-1.82-2.61-.29-1.15-.43-2.7-.43-4.67s.16-3.54.48-4.72c.32-1.18.91-2,1.76-2.44,1.28-.67,2.99-1,5.13-1Z"/>
        <path class="cls-1" d="M407.65,322.56c11.39,0,21.28,3.96,29.67,11.89,8.39,7.93,12.59,17.76,12.59,29.5s-4,21.74-12.01,30c-8.01,8.26-17.86,12.39-29.56,12.39s-21.65-4.07-29.85-12.22c-8.2-8.15-12.3-17.85-12.3-29.11,0-6.15,1.15-11.91,3.46-17.28,2.31-5.37,5.39-9.87,9.24-13.5,3.85-3.63,8.27-6.48,13.28-8.56,5-2.07,10.16-3.11,15.47-3.11ZM386.64,364.45c0,6.59,2.21,11.94,6.64,16.05,4.43,4.11,9.37,6.17,14.84,6.17s10.39-2,14.78-6c4.39-4,6.58-9.37,6.58-16.11s-2.21-12.15-6.64-16.22c-4.43-4.07-9.37-6.11-14.84-6.11s-10.39,2.06-14.78,6.17c-4.39,4.11-6.58,9.46-6.58,16.05Z"/>
        <path class="cls-1" d="M548.67,326.84c.62,1.11.98,2.11,1.1,3,.12.89.17,2.19.17,3.89v61.66c0,5.11-1.46,8.11-4.39,9-1.46.44-3.31.67-5.54.67s-4-.18-5.31-.56c-1.31-.37-2.31-.81-3-1.33-.69-.52-1.23-1.26-1.62-2.22-.39-1.26-.58-3.18-.58-5.78v-37.22c-1.92,2.3-4.73,5.94-8.43,10.94-3.69,5-6.04,8.13-7.04,9.39-1,1.26-1.69,2.13-2.08,2.61-.39.48-1.33,1.15-2.83,2-1.5.85-3.12,1.28-4.85,1.28s-3.31-.39-4.73-1.17c-1.43-.78-2.44-1.54-3.06-2.28l-.92-1.22c-1.54-1.85-4.58-5.79-9.12-11.83-4.54-6.04-7.01-9.28-7.39-9.72v37.44c0,1.7-.06,2.98-.17,3.83-.12.85-.48,1.8-1.1,2.83-1.15,2-4.16,3-9.01,3s-7.62-1-8.77-3c-.62-1.04-.98-2-1.1-2.89-.12-.89-.17-2.22-.17-4v-61.66c0-1.7.06-2.98.17-3.83.12-.85.48-1.83,1.1-2.94,1.15-1.93,4.16-2.89,9.01-2.89,2.08,0,3.87.24,5.37.72,1.5.48,2.48.98,2.94,1.5l.69.67,26.21,33.11c13.08-16.67,21.82-27.67,26.21-33,1.31-2,4.41-3,9.29-3s7.87,1,8.95,3Z"/>
        <path class="cls-1" d="M614.15,326.12c.72-1.18,1.75-2,3.12-2.44,1.36-.44,3.06-.67,5.1-.67s3.67.19,4.89.56c1.22.37,2.15.82,2.79,1.33.64.52,1.11,1.3,1.4,2.33.43,1.26.64,3.19.64,5.78v33.55c0,9.78-2.94,18.67-8.81,26.66-2.87,3.78-6.55,6.83-11.07,9.17-4.51,2.33-9.51,3.5-14.99,3.5s-10.46-1.19-14.93-3.56c-4.48-2.37-8.11-5.48-10.9-9.33-5.8-7.85-8.7-16.74-8.7-26.67v-33.44c0-1.78.05-3.09.16-3.94.11-.85.45-1.83,1.02-2.94.57-1.11,1.54-1.89,2.9-2.33,1.36-.44,3.19-.67,5.48-.67s4.12.22,5.48.67c1.36.44,2.29,1.22,2.79,2.33.86,1.7,1.29,4.04,1.29,7v33.33c0,4.52,1.07,8.82,3.22,12.89,1.07,2.07,2.69,3.74,4.83,5,2.15,1.26,4.69,1.89,7.63,1.89,5.23,0,9.13-2,11.71-6,2.58-4,3.87-8.63,3.87-13.89v-34c0-2.89.36-4.92,1.07-6.11Z"/>
        <path class="cls-1" d="M327.54,445.74h18.82c3.85.15,6.2,1.19,7.06,3.11.71,1.41,1.07,3.48,1.07,6.22v24.44c0,2.37-1,4.63-2.99,6.78-5.99,6.44-14.97,9.67-26.95,9.67-10.62,0-19.86-4.17-27.7-12.5-7.84-8.33-11.76-18.39-11.76-30.17s3.99-21.61,11.98-29.5c7.98-7.89,17.39-11.83,28.23-11.83,8.41,0,16.36,2.89,23.85,8.67,1.93,1.48,2.89,3.13,2.89,4.94s-.82,3.91-2.46,6.28c-2.78,3.93-5.31,5.89-7.59,5.89-1.36,0-3.53-1.02-6.52-3.06-2.99-2.04-6.56-3.06-10.69-3.06-5.42,0-10.23,1.98-14.44,5.94-4.21,3.96-6.31,9.15-6.31,15.55s2.14,11.85,6.42,16.33c4.28,4.48,9.12,6.72,14.54,6.72,3.92,0,7.45-.67,10.59-2v-12.11h-8.45c-2.21,0-3.78-.3-4.71-.89-.93-.59-1.53-1.46-1.82-2.61-.29-1.15-.43-2.7-.43-4.67s.16-3.54.48-4.72c.32-1.18.91-2,1.76-2.44,1.28-.67,2.99-1,5.13-1Z"/>
        <path class="cls-1" d="M407.65,412.19c11.39,0,21.28,3.96,29.67,11.89,8.39,7.93,12.59,17.76,12.59,29.5s-4,21.74-12.01,30c-8.01,8.26-17.86,12.39-29.56,12.39s-21.65-4.07-29.85-12.22c-8.2-8.15-12.3-17.85-12.3-29.11,0-6.15,1.15-11.91,3.46-17.28,2.31-5.37,5.39-9.87,9.24-13.5,3.85-3.63,8.27-6.48,13.28-8.55,5-2.07,10.16-3.11,15.47-3.11ZM386.64,454.07c0,6.59,2.21,11.94,6.64,16.05,4.43,4.11,9.37,6.17,14.84,6.17s10.39-2,14.78-6c4.39-4,6.58-9.37,6.58-16.11s-2.21-12.15-6.64-16.22c-4.43-4.07-9.37-6.11-14.84-6.11s-10.39,2.06-14.78,6.17c-4.39,4.11-6.58,9.46-6.58,16.05Z"/>
        <path class="cls-1" d="M548.67,417.74c.62,1.11.98,2.11,1.1,3,.12.89.17,2.19.17,3.89v61.66c0,5.11-1.46,8.11-4.39,9-1.46.44-3.31.67-5.54.67s-4-.18-5.31-.56c-1.31-.37-2.31-.81-3-1.33-.69-.52-1.23-1.26-1.62-2.22-.39-1.26-.58-3.18-.58-5.78v-37.22c-1.92,2.3-4.73,5.94-8.43,10.94-3.69,5-6.04,8.13-7.04,9.39-1,1.26-1.69,2.13-2.08,2.61-.39.48-1.33,1.15-2.83,2-1.5.85-3.12,1.28-4.85,1.28s-3.31-.39-4.73-1.17c-1.43-.78-2.44-1.54-3.06-2.28l-.92-1.22c-1.54-1.85-4.58-5.79-9.12-11.83-4.54-6.04-7.01-9.28-7.39-9.72v37.44c0,1.7-.06,2.98-.17,3.83-.12.85-.48,1.8-1.1,2.83-1.15,2-4.16,3-9.01,3s-7.62-1-8.77-3c-.62-1.04-.98-2-1.1-2.89-.12-.89-.17-2.22-.17-4v-61.66c0-1.7.06-2.98.17-3.83.12-.85.48-1.83,1.1-2.94,1.15-1.93,4.16-2.89,9.01-2.89,2.08,0,3.87.24,5.37.72,1.5.48,2.48.98,2.94,1.5l.69.67,26.21,33.11c13.08-16.67,21.82-27.67,26.21-33,1.31-2,4.41-3,9.29-3s7.87,1,8.95,3Z"/>
        <path class="cls-1" d="M614.15,416.19c.72-1.18,1.75-2,3.12-2.44,1.36-.44,3.06-.67,5.1-.67s3.67.19,4.89.56c1.22.37,2.15.82,2.79,1.33.64.52,1.11,1.3,1.4,2.33.43,1.26.64,3.19.64,5.78v33.55c0,9.78-2.94,18.67-8.81,26.66-2.87,3.78-6.55,6.83-11.07,9.17-4.51,2.33-9.51,3.5-14.99,3.5s-10.46-1.19-14.93-3.56c-4.48-2.37-8.11-5.48-10.9-9.33-5.8-7.85-8.7-16.74-8.7-26.67v-33.44c0-1.78.05-3.09.16-3.94.11-.85.45-1.83,1.02-2.94.57-1.11,1.54-1.89,2.9-2.33,1.36-.44,3.19-.67,5.48-.67s4.12.22,5.48.67c1.36.44,2.29,1.22,2.79,2.33.86,1.7,1.29,4.04,1.29,7v33.33c0,4.52,1.07,8.82,3.22,12.89,1.07,2.07,2.69,3.74,4.83,5,2.15,1.26,4.69,1.89,7.63,1.89,5.23,0,9.13-2,11.71-6,2.58-4,3.87-8.63,3.87-13.89v-34c0-2.89.36-4.93,1.07-6.11Z"/>
      </g>
    </g>
  </g>
</svg>